<svg id="Layer_1" enable-background="new 0 0 512 512" height="512" viewBox="0 0 512 512" width="512" xmlns="http://www.w3.org/2000/svg"><g><path d="m336.539 85.175h30v40.249h-30z" fill="#90a4ae"/><path d="m504.5 128.61v60h-215.54c-7.732 0-14 6.268-14 14v28.16h-60v-42.16c0-33.137 26.863-60 60-60z" fill="#90a4ae"/><g fill="#78909c"><path d="m244.96 202.61v28.16h30v-28.16c0-7.732 6.268-14 14-14h-30c-7.732 0-14 6.268-14 14z"/><path d="m474.5 128.61h30v60h-30z"/></g><ellipse cx="256" cy="411.5" fill="#bdf9ff" rx="248.5" ry="65"/><path d="m256 346.5c-5.038 0-10.036.044-15 .121 130.256 2.029 233.5 30.298 233.5 64.879s-103.244 62.85-233.5 64.879c4.964.077 9.962.121 15 .121 137.243 0 248.5-29.102 248.5-65s-111.257-65-248.5-65z" fill="#8cf2ff"/><path d="m375.157 204.985h-46.12c-13.774 0-24.94-11.166-24.94-24.94v-40.12c0-13.774 11.166-24.94 24.94-24.94h46.12c13.774 0 24.94 11.166 24.94 24.94v40.12c-.001 13.774-11.167 24.94-24.94 24.94z" fill="#78909c"/><path d="m375.157 114.985h-30c13.774 0 24.94 11.166 24.94 24.94v40.12c0 13.774-11.166 24.94-24.94 24.94h30c13.774 0 24.94-11.166 24.94-24.94v-40.12c-.001-13.774-11.167-24.94-24.94-24.94z" fill="#607d8b"/><g><path d="m313.067 82.654h-34.232c-10.982 0-19.884-8.902-19.884-19.884v-.232c0-10.982 8.902-19.884 19.884-19.884h34.232c10.982 0 19.884 8.902 19.884 19.884v.232c0 10.982-8.903 19.884-19.884 19.884z" fill="#90a4ae"/><path d="m425.051 82.654h-34.232c-10.982 0-19.884-8.902-19.884-19.884v-.232c0-10.982 8.902-19.884 19.884-19.884h34.232c10.982 0 19.884 8.902 19.884 19.884v.232c0 10.982-8.903 19.884-19.884 19.884z" fill="#90a4ae"/><path d="m425.051 42.654h-30c10.982 0 19.884 8.902 19.884 19.884v.232c0 10.982-8.902 19.884-19.884 19.884h30c10.982 0 19.884-8.902 19.884-19.884v-.232c0-10.982-8.903-19.884-19.884-19.884z" fill="#78909c"/></g><path d="m355.809 89.5h-8c-14.912 0-27-12.088-27-27 0-14.912 12.088-27 27-27h8c14.912 0 27 12.088 27 27 0 14.912-12.089 27-27 27z" fill="#78909c"/><path d="m355.809 35.5h-8c-3.919 0-7.639.842-11 2.343 9.427 4.212 16 13.664 16 24.656 0 10.993-6.573 20.444-16 24.657 3.361 1.502 7.081 2.343 11 2.343h8c14.912 0 27-12.088 27-27 0-14.911-12.089-26.999-27-26.999z" fill="#607d8b"/><path d="m287.479 340.969c0 31.48-17.909 42.434-40 42.434s-40-10.954-40-42.434c0-26.669 28.707-59.513 37.482-68.93 1.362-1.462 3.673-1.462 5.035 0 8.776 9.417 37.483 42.262 37.483 68.93z" fill="#8cf2ff"/><path d="m249.997 272.039c-1.362-1.462-3.673-1.462-5.035 0-2.724 2.924-7.371 8.108-12.482 14.662 11.352 14.556 25 35.879 25 54.268 0 23.919-10.343 35.979-25 40.397 4.633 1.397 9.694 2.037 15 2.037 22.091 0 40-10.954 40-42.434-.001-26.668-28.708-59.513-37.483-68.93z" fill="#63e9ff"/><g><path d="m504.5 121.11h-24.526c-4.142 0-7.5 3.358-7.5 7.5s3.358 7.5 7.5 7.5h17.026v45h-89.422c.011-.354.018-.709.018-1.065v-40.12c0-1.29-.076-2.563-.223-3.815h40.601c4.142 0 7.5-3.358 7.5-7.5s-3.358-7.5-7.5-7.5h-46.406c-5.888-8.242-15.533-13.625-26.412-13.625h-1.117v-15.706c1.921-1.201 3.716-2.585 5.36-4.128 3.56 1.633 7.455 2.499 11.42 2.499h34.23c15.098 0 27.38-12.283 27.38-27.38v-.23c0-15.103-12.283-27.39-27.38-27.39h-34.23c-3.883 0-7.704.832-11.204 2.403-6.195-5.916-14.584-9.553-23.806-9.553h-8c-9.179 0-17.531 3.603-23.719 9.469-3.449-1.516-7.206-2.319-11.02-2.319h-34.24c-15.097 0-27.38 12.287-27.38 27.39v.23c0 15.097 12.283 27.38 27.38 27.38h34.24c3.891 0 7.723-.837 11.235-2.417 1.465 1.366 3.05 2.606 4.735 3.703v16.049h-.004c-10.879 0-20.524 5.383-26.412 13.625h-27.664c-37.22 0-67.5 30.28-67.5 67.5v42.16c0 4.142 3.358 7.5 7.5 7.5h60c4.142 0 7.5-3.358 7.5-7.5v-28.16c0-3.584 2.916-6.5 6.5-6.5h11.901c5.595 9.774 16.129 16.375 28.175 16.375h46.121c12.046 0 22.58-6.601 28.175-16.375h101.168c4.142 0 7.5-3.358 7.5-7.5v-60c0-4.142-3.358-7.5-7.5-7.5zm-79.45-70.96c6.827 0 12.38 5.558 12.38 12.39v.23c0 6.826-5.554 12.38-12.38 12.38h-34.23c-.944 0-1.879-.109-2.789-.32 1.471-3.831 2.277-7.988 2.277-12.33 0-4.241-.77-8.305-2.176-12.062.871-.191 1.769-.289 2.687-.289h34.231zm-77.241-7.15h8c10.752 0 19.5 8.748 19.5 19.5s-8.748 19.5-19.5 19.5h-8c-6.534 0-12.328-3.23-15.868-8.178-.035-.051-.072-.103-.108-.153-2.22-3.166-3.524-7.018-3.524-11.169 0-10.752 8.747-19.5 19.5-19.5zm-68.979 32.15c-6.826 0-12.38-5.554-12.38-12.38v-.23c0-6.832 5.554-12.39 12.38-12.39h34.24c.829 0 1.643.08 2.434.236-1.419 3.771-2.196 7.854-2.196 12.115 0 4.365.815 8.544 2.301 12.392-.825.171-1.674.258-2.54.258h-34.239zm65.21 21.645c1.238.135 2.495.205 3.769.205h8c1.09 0 2.167-.051 3.231-.151v10.636h-15zm-55.08 84.315c-11.855 0-21.5 9.645-21.5 21.5v20.66h-45v-34.66c0-28.949 23.551-52.5 52.5-52.5h21.86c-.147 1.252-.223 2.524-.223 3.815v40.12c0 .356.006.711.018 1.065zm86.197 16.375h-46.121c-9.616 0-17.44-7.824-17.44-17.44v-40.12c0-2.75.64-5.353 1.778-7.668.088-.157.17-.318.246-.482 2.931-5.521 8.741-9.289 15.415-9.289h7.233c.09.003.18.005.271.005h30c.091 0 .181-.002.271-.005h8.346c6.743 0 12.605 3.847 15.505 9.462.023.046.046.091.07.136 1.192 2.359 1.865 5.023 1.865 7.841v40.12c0 9.616-7.823 17.44-17.439 17.44z"/><path d="m430.053 450.145c-46.359 12.159-108.172 18.855-174.053 18.855-65.754 0-127.484-6.674-173.817-18.793-49.534-12.957-67.183-28.49-67.183-38.707 0-11.004 18.748-23.624 50.149-33.757 3.942-1.272 6.106-5.499 4.834-9.441s-5.502-6.106-9.441-4.834c-40.173 12.964-60.542 29.125-60.542 48.032 0 27.04 42.627 43.865 78.387 53.218 47.537 12.434 110.614 19.282 177.613 19.282 67.128 0 130.293-6.871 177.858-19.346 4.006-1.051 6.403-5.15 5.352-9.157s-5.153-6.404-9.157-5.352z"/><path d="m443.921 361.144c-38.992-11.476-91.648-19.009-148.958-21.354-.74-28.291-27.768-60.295-39.48-72.864-2.063-2.213-4.98-3.483-8.004-3.483s-5.942 1.27-8.005 3.483c-11.83 12.695-39.285 45.219-39.494 73.717-39.533 2.369-76.593 7.269-107.594 14.245-4.041.909-6.58 4.922-5.67 8.963.785 3.487 3.88 5.855 7.31 5.855.545 0 1.099-.06 1.653-.185 30.358-6.831 66.776-11.627 105.701-13.935 4.679 22.64 20.905 35.317 46.098 35.317 25.501 0 41.814-12.988 46.265-36.151 56.345 2.266 107.955 9.601 145.943 20.781 42.258 12.437 57.314 26.734 57.314 35.967 0 9.333-13.586 19.977-37.274 29.203-3.86 1.503-5.77 5.851-4.267 9.711 1.155 2.965 3.989 4.78 6.991 4.78.905 0 1.826-.165 2.72-.513 31.074-12.104 46.83-26.632 46.83-43.181 0-20.119-22.905-37.062-68.079-50.356zm-196.442 14.759c-19.779 0-30.365-9.348-32.208-28.525-.001-.015-.001-.029-.002-.044-.011-.213-.031-.423-.059-.631-.154-1.824-.231-3.735-.231-5.734 0-17.896 16.273-42.399 32.5-60.563 16.227 18.164 32.5 42.667 32.5 60.563 0 1.776-.061 3.483-.183 5.122-.026.215-.044.433-.052.654-1.669 19.605-12.269 29.158-32.265 29.158z"/></g></g></svg>