<svg id="Layer_1" enable-background="new 0 0 512 512" height="512" viewBox="0 0 512 512" width="512" xmlns="http://www.w3.org/2000/svg"><g><circle cx="295" cy="217" fill="#ffb300" r="209.5"/><path d="m295 7.5c-5.045 0-10.045.189-15 .54 108.701 7.692 194.5 98.301 194.5 208.96s-85.799 201.268-194.5 208.96c4.955.351 9.955.54 15 .54 115.704 0 209.5-93.796 209.5-209.5s-93.796-209.5-209.5-209.5z" fill="#ffa000"/><path d="m352.575 327.643c-9.734 16.186-9.162 15.64-10.364 16.179-12.094 5.424-12.664 5.221-13.087 7.241-1.748 8.341-3.249 23.8-11.309 28.264-4.679 2.592-12.046 8.87-15.802 16.937 0 0-7.854 14.134-23.369 11.106-3.889-.759-4.2-16.754-4.2-16.754-.534-2.131 3.479-9.997 3.15-12.063l-6.11-38.394c-.678-4.262-12.727-4.646-14.518-7.906-8.846-16.098-8.294-14.888-8.377-15.763-1.666-17.633-1.945-17.406-1.019-18.699 7.472-10.435 7.247-9.846 7.315-11.023.657-11.451.234-12.671 2.198-13.768 7.348-4.103 14.107-1.542 14.902-1.397 0 0 32.409 3.709 37.636 11.449 7.426 10.996 6.357 13.578 9.222 13.118 17.706-2.846 17.011-3.043 18.379-2.064 14.638 10.478 15.006 10.208 15.079 12.246.762 21.162.922 20.213.274 21.291z" fill="#64cc56"/><path d="m314.103 130.47c-.496 3.614-2.82 2.174-32.785 12.878-.427.149-1.599 4.12-2.214 6.285-1.36 4.855 14.059 17.654 7.606 21.089l-19.163 10.217c-3.068 1.628-2.522 9.929-5.391 11.647-8.509 5.094-8.668 4.964-9.234 6.166-3.207 6.742-3.793 9.571-6.742 9.452l-20.086-.765c-.764-.03-7.893 2.274-6.98 6.116 1.241 5.203 4.13 17.127 4.726 17.634 15.42 20.205 15.102 12.878 9.393 28.198-.675 1.817-2.77 2.641-4.508 1.797-18.517-8.986-17.703-8.747-18.498-8.876-17.951-3.167-18.249-2.77-19.262-4.677-3.157-5.918-15.261-28.605-15.439-28.754-28.704-23.551-28.605-22.539-29.112-24.405-5.421-19.848-5.213-18.994-5.044-19.937 4.18-23.601 3.932-22.231 4.061-22.578l5.133-14.615c.904-2.572-5.431-14.725-5.6-17.237-1.529-21.913-1.112-21.645-2.631-22.876-.05-.04-4.349-5.898-9.502-12.878 15.489-18.905 34.215-35.059 55.334-47.599 19.371 8.668 38.177 16.671 39.031 16.045 14.039-10.257 13.186-9.959 14.367-10.157 18.716-3.148 21.218-4.557 22.28-.784 4.121 14.625 5.123 15.737 2.86 17.544-32.934 26.322-32.051 24.892-31.941 27.255.665 14.169.506 13.702 1.033 14.635 11.16 20.106 10.793 20.553 13.076 20.871 15.3 2.125 16.174 2.84 17.693.616 16.343-24.038 15.062-22.34 15.837-22.846 8.32-5.461 9.115-6.563 11.299-5.52 10.803 5.173 11.24 5.064 11.885 6.613l9.115 21.774c.575 1.347-.607 7.751-.597 7.672z" fill="#ffd54f"/><path d="m457.616 84.906c-7.427 2.194-12.969 12.834-13.535 14.284-5.723 14.664-27.302 30.074-31.691 29.012-6.503-2.274-8.968-5.626-9.512-11.402-.801-8.509-2.444-14.696-4.28-20.519-1.835-5.823 3.433-22.636 3.433-22.636 1.896-5.242-5.191-14.781-7.057-20.113v-20.683c24.137 13.135 45.415 30.878 62.642 52.057z" fill="#f5f5f5"/><path d="m441.558 104.188c1.01-1.659 1.873-3.333 2.523-4.998.566-1.449 6.108-12.09 13.535-14.284-17.227-21.178-38.504-38.921-62.642-52.057v19.859c18.228 14.438 34.005 31.835 46.584 51.48z" fill="#e6e6e6"/><path d="m443.59 424.94c0 31.48-17.909 42.434-40 42.434s-40-10.954-40-42.434c0-26.669 28.707-59.513 37.482-68.93 1.362-1.462 3.673-1.462 5.035 0 8.776 9.417 37.483 42.262 37.483 68.93z" fill="#bdf9ff"/><path d="m406.108 356.01c-1.362-1.462-3.673-1.462-5.035 0-2.724 2.924-7.371 8.108-12.482 14.662 11.352 14.556 25 35.879 25 54.268 0 23.919-10.343 35.979-25 40.397 4.633 1.397 9.694 2.037 15 2.037 22.091 0 40-10.954 40-42.434-.001-26.668-28.708-59.513-37.483-68.93z" fill="#8cf2ff"/><path d="m281 301.546c0 31.48-17.909 42.434-40 42.434s-40-10.954-40-42.434c0-26.669 28.707-59.513 37.482-68.93 1.362-1.462 3.673-1.462 5.035 0 8.776 9.417 37.483 42.262 37.483 68.93z" fill="#bdf9ff"/><path d="m243.518 232.616c-1.362-1.462-3.673-1.462-5.035 0-2.724 2.924-7.371 8.108-12.482 14.662 11.352 14.556 25 35.879 25 54.268 0 23.919-10.343 35.979-25 40.397 4.633 1.397 9.694 2.037 15 2.037 22.091 0 40-10.954 40-42.434-.001-26.668-28.708-59.513-37.483-68.93z" fill="#8cf2ff"/><path d="m437.884 228.216c0 31.48-17.909 42.434-40 42.434s-40-10.954-40-42.434c0-26.669 28.707-59.513 37.482-68.93 1.362-1.462 3.673-1.462 5.035 0 8.776 9.417 37.483 42.261 37.483 68.93z" fill="#bdf9ff"/><path d="m400.401 159.285c-1.362-1.462-3.673-1.462-5.035 0-2.724 2.924-7.371 8.108-12.482 14.662 11.352 14.556 25 35.879 25 54.268 0 23.919-10.343 35.979-25 40.397 4.633 1.397 9.694 2.037 15 2.037 22.091 0 40-10.954 40-42.434 0-26.668-28.707-59.512-37.483-68.93z" fill="#8cf2ff"/><path d="m133.5 441.5c0 35.161-28.815 63.601-64.115 62.99-33.293-.576-60.692-27.468-61.846-60.746-.626-18.057 6.338-34.471 17.961-46.334v-221.91c0-24.853 20.147-45 45-45 24.853 0 45 20.147 45 45v221.91c11.14 11.37 18 26.92 18 44.09z" fill="#90a4ae"/><path d="m69.903 474.495c-17.258-.298-31.785-14.56-32.382-31.791-.317-9.153 3.023-17.783 9.407-24.299l8.571-8.748v-234.157c0-8.271 6.729-15 15-15s15 6.729 15 15v234.157l8.57 8.748c6.081 6.207 9.43 14.409 9.43 23.095 0 18.196-14.804 33-33 33-.198 0-.396-.002-.596-.005z" fill="#bdf9ff"/><path d="m85.5 409.657v-191.574h-30v191.575l-8.571 8.748c-6.384 6.516-9.725 15.146-9.407 24.299.597 17.231 15.124 31.492 32.382 31.791.199.003.397.005.597.005 18.196 0 33-14.804 33-33 0-8.687-3.349-16.889-9.43-23.095z" fill="#f05656"/><g><path d="m511.803 216.997c2.338-23.93-16.601-112.088-33.549-101.551-3.69 1.878-5.159 6.394-3.282 10.086 42.337 83.243 21.576 184.268-47.841 244.119-5.913-7.903-11.696-14.462-15.694-18.754-2.061-2.214-4.977-3.484-8.001-3.485-2.472-.042-5.94 1.245-8.004 3.483-9.668 10.38-29.777 34.014-36.905 57.865-35.927 12.032-76.338 13.508-113.328 4.079-4.015-1.016-8.092 1.416-9.107 5.432-1.016 4.016 1.414 8.094 5.429 9.11 36.962 9.428 77.658 8.777 114.433-2.105-1.071 45.582 41.181 59.977 74.685 42.847 28.523-17.896 23.431-60.063 5.047-86.049 48.463-41.36 76.117-101.135 76.117-165.077zm-108.368 242.877c-21.861 0-32.488-11.427-32.488-34.935 0-17.896 16.267-42.399 32.488-60.563 5.573 6.241 11.152 13.231 16.075 20.443.002.003.003.005.005.007 22.138 28.664 26.068 75.039-16.08 75.048z"/><path d="m216.002 403.005c-38.209-16.238-71.179-44.615-93.049-80.036v-147.473c0-14.019-5.521-26.772-14.502-36.197 6.369-15.264 14.547-29.488 24.223-42.458l.016.022c1.783 2.422 2.792 3.792 3.425 4.617.146 1.467.325 4.223.551 7.719.189 2.919.43 6.645.761 11.403.143 2.135 1.027 4.351 2.851 8.763.783 1.893 2.137 5.168 2.65 6.92l-4.562 12.991c-.352.884-.58 2.17-3.571 19.071l-.859 4.849c-.483 2.48-.483 2.48 4.333 20.118l.85 3.115c.95 3.504 1.921 4.282 9.486 10.333 3.965 3.172 10.517 8.414 21.008 17.016 1.239 2.269 4.815 8.914 14.656 27.368 2.534 4.772 5.309 5.244 15.638 7.001 2.184.371 4.874.829 8.198 1.414-35.29 53.201-3.318 109.401 56.701 86.968l5.119 32.175c-.231.779-.685 2.04-1.007 2.939-1.331 3.701-2.414 6.712-2.055 9.675.044 1.325.198 4.814.693 8.413.554 4.038 1.853 13.494 9.539 15 18.897 4.064 30.342-12.568 31.352-14.831.085-.154.165-.31.239-.469 3.016-6.469 9.211-11.641 12.647-13.542 9.943-5.517 12.425-19.246 14.238-29.271.116-.639.227-1.26.338-1.856.887-.403 2.027-.905 3.201-1.421 1.606-.706 3.587-1.578 6.093-2.703 3.026-1.343 3.454-2.06 8.691-10.828 1.259-2.109 2.877-4.817 5.022-8.383 1.603-2.655 1.586-3.088 1.158-14.198-.108-2.788-.248-6.413-.417-11.133-.182-5.336-2.424-6.918-10.767-12.806-1.937-1.367-4.373-3.086-7.499-5.323-3.536-2.547-5.324-2.251-15.247-.611-1.381.229-2.983.494-4.847.798-1.123-2.148-2.824-5.214-5.585-9.304-5.633-8.336-25.4-12.371-38.995-14.2-8.988-15.925-20.993-29.83-27.809-37.148-3.824-4.267-11.665-4.789-16.003.001-.437.469-.895.965-1.373 1.487-.396-.504-.806-1.031-1.23-1.582-.355-1.144-1.25-4.287-3.219-12.423l18.699.712c7.411.298 10.145-5.67 12.312-10.469.294-.649.613-1.357.975-2.138.636-.388 1.552-.93 2.552-1.522 1.126-.667 2.528-1.497 4.284-2.548 4.097-2.454 5.206-7.025 6.015-10.362.135-.555.312-1.286.477-1.863l17.724-9.453c2.708-1.442 4.578-3.814 5.268-6.679 1.389-5.776-2.315-11.083-5.895-16.214-.912-1.305-2.192-3.14-2.839-4.31.094-.314.18-.6.259-.857 9.586-3.372 15.953-5.359 20.308-6.719 8.381-2.616 13.064-4.078 14.133-10.705.633-2.609 1.384-9.968.139-11.961l-9.107-21.763c-1.626-3.903-3.797-4.927-10.244-7.968-1.412-.666-3.155-1.488-5.327-2.528-6.659-3.333-12.224 1.893-18.493 5.924-1.81 1.039-1.971 1.275-9.351 12.16-1.851 2.73-4.223 6.228-7.273 10.718-1.223-.159-2.824-.396-4.476-.64-1.524-.226-3.298-.488-5.39-.786-.835-1.432-2.117-3.781-3.617-6.527-1.415-2.593-3.203-5.866-5.495-10.003-.058-.95-.131-2.62-.224-4.711-.063-1.438-.141-3.193-.239-5.344 1.945-1.654 5.79-4.703 11.256-9.038 4.417-3.503 10.2-8.088 17.76-14.133 7.703-5.584 1.96-16.018-.318-25.44-1.353-4.809-4.872-7.552-9.908-7.724-2.678-.095-5.881.491-11.722 1.546-2.497.451-5.495.992-9.148 1.607-2.509.416-3.328 1.024-7.874 4.4-1.535 1.14-3.675 2.73-6.707 4.956-3.53-1.314-10.313-4.105-20.222-8.418 55.21-28.466 126.896-28.006 181.95 1.302v16.041c0 .844.143 1.681.421 2.478.759 2.169 1.967 4.472 3.247 6.911 1.26 2.404 3.574 6.813 3.701 8.575-1.808 5.789-5.681 19.795-3.399 27.042 1.866 5.917 3.253 11.406 3.965 18.967.843 8.965 5.451 14.615 14.497 17.779.824.246 1.182.376 2.81.449 4.891 0 11.538-3.48 19.805-10.378 5.181-4.322 14.46-13.096 18.494-23.366.653-1.469 2.627-4.698 4.88-7.101 1.117 1.469 2.215 2.956 3.294 4.46 2.414 3.366 7.101 4.134 10.462 1.719 3.364-2.415 4.133-7.101 1.719-10.466-70.246-97.636-204.263-118.699-300.231-51.74-33.024 23.031-58.726 54.321-74.77 90.902-35.65-19.801-78.037 6.103-78.227 45.737v16.423c.589 10.285 14.724 9.4 14.994 0v-16.423c2.633-50.816 73.329-48.667 74.971 0v149.497c-.001.062-.001.124 0 .187v72.229c0 1.962.769 3.847 2.142 5.249 21.133 20.648 21.011 57.987-.743 78.425-10.696 10.519-24.852 16.174-39.869 15.908-29.515-.51-53.436-24.014-54.46-53.507-.532-15.369 5.085-29.868 15.817-40.826 1.373-1.402 2.142-3.287 2.142-5.249v-173.335c-.589-10.285-14.724-9.4-14.994 0v170.369c-12.234 13.619-18.589 31.097-17.949 49.561.625 18.023 8.119 34.973 21.103 47.728 12.979 12.752 30.055 19.946 48.081 20.258.421.007.839.011 1.257.011 18.598 0 36.094-7.152 49.382-20.219 26.602-25.019 28.082-70.559 3.085-97.336v-45.166c22.735 29.443 53.009 53.007 87.186 67.532 3.17 1.482 8.135.028 9.832-3.97 1.62-3.814-.157-8.218-3.968-9.837zm230.184-319.77c-5.996 5.654-9.22 13.122-9.261 13.223-4.034 10.341-18.563 21.678-23.89 23.995-2.435-1.131-2.647-2.237-2.848-4.362-.885-9.4-2.73-16.162-4.567-21.979-.491-2.237 1.115-10.848 3.374-18.114 2.293-6.674-1.433-13.779-4.725-20.053-.719-1.37-1.456-2.774-1.95-3.87v-6.035c16.2 10.176 31.004 22.668 43.867 37.195zm-142.822 204.123c2.922 4.338 4.379 7.206 5.347 9.109 1.463 2.878 4.191 8.236 11.198 7.106 3.592-.578 6.429-1.047 8.681-1.42 2.305-.381 4.295-.71 5.598-.903 2.425 1.729 4.419 3.137 6.058 4.294 1.835 1.295 3.43 2.42 4.503 3.21.188 5.354.472 11.829.59 16.153-1.78 2.963-3.189 5.323-4.315 7.208-1.475 2.468-2.597 4.346-3.266 5.422-1.843.823-3.386 1.502-4.681 2.071-7.054 3.103-10.274 4.518-11.422 9.92-.276 1.324-.548 2.819-.837 4.42-1.059 5.856-3.03 16.756-6.749 18.82-5.833 3.229-14.211 10.379-18.806 19.976-.842 1.376-5.003 7.492-12.412 7.543-.513-2.419-.939-6.356-1.009-9.811-.002-.063-.004-.127-.007-.19.22-.854.818-2.518 1.194-3.565 1.295-3.602 2.317-6.447 1.869-9.349l-6.107-38.385c-.164-1.035-.469-1.962-.874-2.794 10.736-12.559 13.607-37.274 6.513-55.023 9.361 1.872 17.061 4.294 18.934 6.188zm-29.969 14.186c0 13.515-3.513 23.036-10.654 28.69-.337.214-.658.454-.958.72-27.168 14.319-55.913 1.957-53.303-31.317 1.082-17.977 16.734-40.924 32.427-58.656 16.221 18.165 32.488 42.668 32.488 60.563zm10.337-151.138c.042-.015.085-.03.126-.045-.041.016-.083.031-.126.045zm-94.793-105.071c9.11 4.052 17.069 7.497 23.15 10.02 12.183 5.054 15.458 6.413 19.442 3.492 4.676-3.417 7.707-5.668 9.713-7.158 1.014-.753 1.892-1.405 2.477-1.83 3.232-.55 5.962-1.043 8.271-1.46 2.023-.365 3.987-.72 5.547-.969.391 1.356.746 2.566 1.063 3.65.445 1.52.877 2.995 1.194 4.152-6.515 5.203-11.61 9.243-15.594 12.402-7.498 5.946-10.921 8.66-12.887 10.453-2.649 2.417-4.366 4.84-4.137 8.808l.004.105c.147 3.139.255 5.558.337 7.431.33 7.474.365 8.255 1.629 10.492 2.496 4.499 4.412 8.009 5.911 10.752 5.939 10.878 7.175 13.141 12.685 13.908 2.925.406 5.316.761 7.284 1.052 9.159 1.356 13.753 2.036 17.633-3.648 3.759-5.531 6.586-9.7 8.72-12.848 3.057-4.51 4.899-7.227 5.733-8.412 1.252-.828 2.326-1.549 3.254-2.172.721-.485 1.455-.978 2.078-1.387 1.265.601 2.357 1.116 3.302 1.562 1.339.632 2.564 1.209 3.407 1.625l8.063 19.27c-.04.589-.136 1.425-.254 2.275-1.137.38-2.649.852-4.209 1.339-4.936 1.541-12.395 3.869-24.003 8.017-4.157 1.443-5.155 4.95-6.975 11.347-1.531 5.465 1.847 10.304 5.422 15.427.601.861 1.403 2.009 2.096 3.082l-15.365 8.195c-4.543 2.412-5.72 7.265-6.579 10.808-.132.542-.306 1.257-.466 1.817-1.132.675-2.089 1.242-2.9 1.722-5.001 2.96-6.51 3.854-7.931 6.869-.626 1.315-1.156 2.487-1.623 3.523-.225.501-.473 1.049-.71 1.557l-17.422-.664c-5.884-.354-17.057 6.949-14.562 15.351 4.109 17.23 4.921 19.498 6.499 21.022 1.23 1.603 2.351 3.021 3.364 4.275-1.615 2.016-3.272 4.157-4.936 6.401-3.485-1.706-3.892-1.858-5.271-2.081-3.678-.649-6.617-1.149-8.972-1.549-2.409-.41-4.491-.764-5.857-1.029-15.004-28.133-15.029-28.154-16.351-29.256-11.219-9.209-18.119-14.729-22.241-18.027-2.102-1.681-3.781-3.025-4.726-3.818l-.511-1.868c-2.242-8.213-3.459-12.665-3.881-14.406l.707-3.993c2.011-11.356 2.768-15.634 2.995-16.83l5.024-14.311c1.425-4.059-.201-8.343-3.445-16.189-.605-1.462-1.493-3.609-1.781-4.517-.313-4.524-.544-8.08-.725-10.885-.713-11.031-.87-13.456-3.841-16.16-.567-.766-1.634-2.216-3.024-4.104l-2.349-3.188c13.467-15.426 29.188-28.72 46.524-39.442zm-36.56 74.122c.003.043.006.083.008.12-.002-.04-.005-.08-.008-.12z"/><path d="m397.731 150.685c-.001 0-.002 0-.002 0-3.024 0-5.94 1.271-8 3.483-11.87 12.744-39.48 45.469-39.48 74.044 0 31.734 17.307 49.935 47.482 49.935s47.482-18.2 47.482-49.935c0-28.576-27.609-61.301-39.48-74.044-2.063-2.214-4.979-3.483-8.002-3.483zm0 112.462c-21.861 0-32.488-11.427-32.488-34.934 0-17.895 16.266-42.397 32.488-60.563 46.893 50.589 39.666 95.718 0 95.497z"/><path d="m70.473 152.996c-12.401 0-22.491 10.093-22.491 22.5v231.098l-6.426 6.562c-7.831 7.997-11.93 18.583-11.54 29.807.732 21.155 18.555 38.664 39.732 39.03h.001c37.272.223 54.154-43.791 29.642-68.838l-6.425-6.561v-231.098c-.002-12.407-10.091-22.5-22.493-22.5zm0 15c4.134 0 7.497 3.364 7.497 7.5v35.083h-14.994v-35.083c0-4.136 3.363-7.5 7.497-7.5zm25.49 273.503c0 14.061-11.435 25.5-25.49 25.5l-.468-.004h.001c-13.328-.23-24.546-11.244-25.007-24.552-.245-7.082 2.335-13.755 7.267-18.79l8.568-8.748c1.373-1.402 2.142-3.287 2.142-5.249v-184.077h14.994v184.077c0 1.962.769 3.847 2.142 5.249l8.567 8.748c4.697 4.796 7.284 11.134 7.284 17.846z"/></g></g></svg>