<svg id="Capa_1" enable-background="new 0 0 512 512" height="512" viewBox="0 0 512 512" width="512" xmlns="http://www.w3.org/2000/svg"><g><g><g><g><g><path d="m256 35.462-216.321 139.485v301.278h432.641v-301.278z" fill="#f2f9ff"/><path d="m256 35.462-48.175 31.063 199.163 128.421v281.279h65.332v-301.278z" fill="#e2f4ff"/><path d="m7.504 186.423c0 15.916 17.619 25.52 30.995 16.894l211.143-136.145c3.871-2.496 8.845-2.496 12.716 0l211.142 136.145c13.377 8.625 30.995-.978 30.995-16.894 0-6.83-3.468-13.193-9.208-16.894l-232.929-150.194c-3.871-2.496-8.845-2.496-12.716 0l-232.93 150.193c-5.74 3.702-9.208 10.065-9.208 16.895z" fill="#afe2f7"/></g></g><path d="m259.594 151.383c-1.641-2.242-5.333-2.242-6.974 0-15.231 20.816-71.883 108.133 3.363 164.635h.247c75.246-56.502 18.595-143.819 3.364-164.635z" fill="#b5e245"/><path d="m422.33 471.2c-41.249-33.828-100.493-55.041-166.33-55.041s-125.082 21.213-166.331 55.041z" fill="#ce9875"/><path d="m486.358 494.53h-460.716c-10.017 0-18.138-8.121-18.138-18.138 0-10.017 8.121-18.138 18.138-18.138h460.716c10.017 0 18.138 8.121 18.138 18.138 0 10.018-8.121 18.138-18.138 18.138z" fill="#e4936b"/><path d="m486.358 458.254h-46.703v18.138c0 10.017-8.121 18.138-18.138 18.138h64.841c10.017 0 18.138-8.12 18.138-18.138 0-10.017-8.121-18.138-18.138-18.138z" fill="#dd6938"/></g><g><path d="m279.194 359.975c-.594 2.095 1.909 4.118 4.816 4.421 109.32 11.392 134.987-70.94 129.396-80.563-4.607-7.933-107.407-18.376-134.212 76.142z" fill="#c6e873"/></g><g><path d="m232.805 359.975c.594 2.095-1.909 4.118-4.816 4.421-109.32 11.392-134.987-70.94-129.397-80.563 4.609-7.933 107.409-18.376 134.213 76.142z" fill="#c6e873"/></g></g><path d="m486.358 450.754h-6.537v-237.058c29.427 5.051 44.601-34.302 19.531-50.471l-48.743-31.429c-3.48-2.243-8.122-1.241-10.368 2.239-2.245 3.481-1.242 8.123 2.239 10.368l48.743 31.428c13.72 8.85.545 30.342-13.658 21.182l-211.143-136.145c-6.331-4.082-14.513-4.082-20.845 0l-211.142 136.146c-13.901 8.958-27.64-12.166-13.658-21.182l232.93-150.194c1.393-.898 3.193-.899 4.587.001l154.717 99.761c3.482 2.244 8.123 1.242 10.367-2.238 2.245-3.481 1.242-8.123-2.239-10.368l-154.716-99.761c-6.332-4.084-14.515-4.084-20.846-.001l-232.93 150.193c-25.074 16.17-9.884 55.506 19.532 50.456v176.192c0 4.143 3.358 7.5 7.5 7.5s7.5-3.357 7.5-7.5v-183.229l206.526-133.169c1.394-.898 3.196-.898 4.588 0l206.527 133.168v244.111h-57.902c-40.029-25.836-90.394-40.606-142.878-41.979 1.103-8.928 4.868-24.631 17.516-37.197.549.121 1.107.22 1.676.279 110.005 11.457 146.699-72.367 136.87-91.387-.044-.088-.089-.176-.136-.261-.026-.046-.048-.097-.074-.143-1.599-2.751-5.14-6.13-18.449-7.843-8.895-1.145-19.473-1.062-29.786.232-47.358 5.948-85.254 34.608-99.678 85.473v.001c-.222.782-.332 1.583-.354 2.385-3.062 2.957-5.722 6.041-8.026 9.181v-49.703c57.11-45.438 43.777-115.808 2.047-172.839-2.178-2.977-5.744-4.753-9.539-4.753-3.796 0-7.362 1.776-9.539 4.753-41.699 56.99-55.14 127.326 2.032 172.827v48.943c-2.358-3.012-5.087-5.941-8.231-8.72-.041-.698-.154-1.393-.347-2.075 0-.001 0-.001 0-.001-7.774-27.414-22.286-48.922-43.133-63.93-25.57-18.407-59.874-25.185-86.331-21.776-13.203 1.699-16.792 5.038-18.409 7.776-.008.014-.016.027-.024.04-.005.009-.011.017-.016.026-9.293 15.997 19.996 92.911 115.751 92.911 4.447 0 18.571-.434 22.872-1.475 13.581 12.206 16.965 28.259 17.734 37.26-52.666 1.29-103.226 16.072-143.384 41.992h-57.903v-25.647c0-4.143-3.358-7.5-7.5-7.5s-7.5 3.357-7.5 7.5v25.647h-6.537c-14.136 0-25.638 11.501-25.638 25.638s11.501 25.638 25.638 25.638h460.716c14.137 0 25.638-11.501 25.638-25.638 0-14.134-11.502-25.635-25.638-25.635zm-188.161-92.881c40.274-30.653 86.372-53.001 107.019-62.305-10.14 33.584-46.989 64.371-107.019 62.305zm91.024-71.503c-22.867 10.759-60.501 30.194-95.442 56.054 18.562-38.548 56.945-56.43 95.442-56.054zm-170.172 57.807c-36.678-25.476-75.603-46.373-98.125-57.772 39.347-1.085 79.465 17.209 98.125 57.772zm-112.069-47.981c20.419 10.084 64.664 33.052 105.527 61.706-58.696 1.59-95.048-28.46-105.527-61.706zm156.619 3.491v-128.657c26.132 43.6 35.54 92.593 0 128.657zm-15-128.63v128.613c-35.526-36.066-26.103-85.048 0-128.613zm127.954 279.697h-241.106c72.978-36.095 168.002-36.158 241.106 0zm109.805 36.277h-460.716c-5.866 0-10.638-4.772-10.638-10.639s4.772-10.638 10.638-10.638h460.716c5.866 0 10.638 4.772 10.638 10.638s-4.773 10.639-10.638 10.639z"/></g></svg>