<svg id="Layer_1" enable-background="new 0 0 512 512" height="512" viewBox="0 0 512 512" width="512" xmlns="http://www.w3.org/2000/svg"><g><path d="m226.173 504.5c-11.141 0-20.173-9.032-20.173-20.173v-129.827h100v129.827c0 11.141-9.032 20.173-20.173 20.173z" fill="#78909c"/><path d="m285.827 504.5c11.141 0 20.173-9.032 20.173-20.173v-129.827h-30v129.827c0 11.141-9.032 20.173-20.173 20.173z" fill="#607d8b"/><circle cx="256" cy="223.5" fill="#ffd54f" r="150"/><path d="m256 73.5c-5.063 0-10.066.255-15 .745 75.799 7.526 135 71.476 135 149.255s-59.201 141.729-135 149.255c4.934.49 9.937.745 15 .745 82.843 0 150-67.157 150-150s-67.157-150-150-150z" fill="#ffca28"/><g><path d="m326 257.84c0 55.781-31.34 83.66-70 83.66s-70-27.879-70-83.66 57.126-118.34 70-118.34 70 62.559 70 118.34z" fill="#64cc56"/><path d="m256 139.5c-3.011 0-8.444 3.424-15 9.382 21.473 19.514 55 66.225 55 108.958 0 48.349-23.551 75.72-55 82.159 4.834.99 9.849 1.501 15 1.501 38.66 0 70-27.879 70-83.66s-57.126-118.34-70-118.34z" fill="#5bbd4f"/></g><path d="m306 403.5h-100c-8.284 0-15-6.716-15-15 0-8.284 6.716-15 15-15h100c8.284 0 15 6.716 15 15 0 8.284-6.716 15-15 15z" fill="#90a4ae"/><path d="m306 373.5h-30c8.284 0 15 6.716 15 15s-6.716 15-15 15h30c8.284 0 15-6.716 15-15s-6.716-15-15-15z" fill="#78909c"/><path d="m306 463.5h-100c-8.284 0-15-6.716-15-15 0-8.284 6.716-15 15-15h100c8.284 0 15 6.716 15 15 0 8.284-6.716 15-15 15z" fill="#90a4ae"/><path d="m306 433.5h-30c8.284 0 15 6.716 15 15s-6.716 15-15 15h30c8.284 0 15-6.716 15-15s-6.716-15-15-15z" fill="#78909c"/><g><path d="m256 42.976c4.143 0 7.5-3.358 7.5-7.5v-27.976c0-4.142-3.357-7.5-7.5-7.5s-7.5 3.358-7.5 7.5v27.976c0 4.142 3.357 7.5 7.5 7.5z"/><path d="m403.429 65.464-19.788 19.789c-2.929 2.929-2.929 7.678 0 10.606 1.465 1.464 3.385 2.197 5.304 2.197s3.839-.732 5.304-2.197l19.788-19.789c2.929-2.929 2.929-7.678 0-10.606-2.931-2.929-7.679-2.929-10.608 0z"/><path d="m117.752 351.141-19.788 19.789c-2.929 2.929-2.929 7.678 0 10.606 1.465 1.464 3.385 2.197 5.304 2.197s3.839-.732 5.304-2.197l19.788-19.789c2.929-2.929 2.929-7.678 0-10.606-2.93-2.929-7.678-2.929-10.608 0z"/><path d="m472 216h-27.976c-4.143 0-7.5 3.358-7.5 7.5s3.357 7.5 7.5 7.5h27.976c4.143 0 7.5-3.358 7.5-7.5s-3.357-7.5-7.5-7.5z"/><path d="m67.976 216h-27.976c-4.143 0-7.5 3.358-7.5 7.5s3.357 7.5 7.5 7.5h27.976c4.143 0 7.5-3.358 7.5-7.5s-3.358-7.5-7.5-7.5z"/><path d="m394.248 351.141c-2.93-2.929-7.678-2.929-10.607 0s-2.929 7.677 0 10.606l19.788 19.789c1.465 1.465 3.384 2.197 5.304 2.197 1.919 0 3.839-.732 5.304-2.197 2.929-2.929 2.929-7.678 0-10.606z"/><path d="m117.752 95.859c1.465 1.465 3.384 2.197 5.304 2.197 1.919 0 3.839-.732 5.304-2.197 2.929-2.929 2.929-7.677 0-10.606l-19.788-19.789c-2.929-2.929-7.677-2.929-10.607 0-2.929 2.929-2.929 7.678 0 10.606z"/><path d="m413.5 223.5c0-47.716-21.282-92.334-58.39-122.413-3.218-2.608-7.94-2.114-10.549 1.104s-2.114 7.94 1.104 10.549c33.577 27.217 52.835 67.588 52.835 110.76 0 76.059-59.897 138.391-135 142.305v-17.138c18.768-1.685 35.447-9.716 47.549-23.035 14.688-16.167 22.451-39.608 22.451-67.792 0-34.39-19.758-67.641-31.536-84.4-10.072-14.333-32.642-41.44-45.964-41.44s-35.892 27.107-45.964 41.44c-11.778 16.759-31.536 50.01-31.536 84.4 0 12.965 1.627 24.971 4.836 35.682 1.188 3.968 5.368 6.219 9.337 5.032 3.968-1.189 6.221-5.369 5.032-9.337-2.79-9.313-4.205-19.87-4.205-31.377 0-29.419 17.219-58.907 27.482-73.865 16.071-23.423 30.758-35.248 35.018-36.866 4.26 1.618 18.946 13.442 35.018 36.866 10.264 14.958 27.482 44.446 27.482 73.865 0 43.851-20.867 72.197-55 75.776v-30.163l30.433-24.62c3.221-2.605 3.72-7.328 1.114-10.548-2.605-3.22-7.328-3.72-10.548-1.114l-20.999 16.988v-35.235l23.194-18.451c3.242-2.579 3.779-7.297 1.2-10.538-2.578-3.243-7.297-3.779-10.538-1.2l-13.856 11.021v-33.256c0-4.142-3.357-7.5-7.5-7.5s-7.5 3.358-7.5 7.5v33.256l-13.856-11.023c-3.24-2.579-7.96-2.042-10.538 1.2-2.579 3.241-2.042 7.959 1.2 10.538l23.194 18.451v35.235l-20.999-16.988c-3.22-2.606-7.943-2.105-10.548 1.114-2.605 3.22-2.106 7.943 1.114 10.548l30.433 24.62v30.156c-15.028-1.603-27.819-8.102-37.308-19.033-2.717-3.129-7.454-3.463-10.58-.748-3.128 2.715-3.463 7.452-.748 10.58 12.211 14.068 29.277 22.529 48.636 24.261v17.137c-75.103-3.913-135-66.245-135-142.305 0-78.574 63.925-142.499 142.5-142.499 22.602 0 44.212 5.134 64.229 15.26 3.698 1.87 8.208.389 10.078-3.307s.389-8.208-3.307-10.078c-22.136-11.197-46.024-16.875-71-16.875-86.846 0-157.5 70.654-157.5 157.5 0 65.296 39.941 121.438 96.674 145.28-6.953 3.832-11.674 11.235-11.674 19.72 0 9.778 6.27 18.119 15 21.215v17.571c-8.73 3.096-15 11.436-15 21.215s6.27 18.119 15 21.215v14.615c0 15.257 12.413 27.67 27.67 27.67h59.66c15.257 0 27.67-12.413 27.67-27.67v-14.615c8.73-3.096 15-11.436 15-21.215s-6.27-18.119-15-21.215v-17.571c8.73-3.096 15-11.436 15-21.215 0-8.485-4.721-15.887-11.674-19.72 56.733-23.842 96.674-79.984 96.674-145.28zm-115 187.5v15h-85v-15zm7.5 45h-50c-4.143 0-7.5 3.358-7.5 7.5s3.357 7.5 7.5 7.5h42.5v13.33c0 6.986-5.684 12.67-12.67 12.67h-59.66c-6.986 0-12.67-5.684-12.67-12.67v-13.33h10.577c4.143 0 7.5-3.358 7.5-7.5s-3.357-7.5-7.5-7.5h-18.077c-4.136 0-7.5-3.364-7.5-7.5s3.364-7.5 7.5-7.5h100c4.136 0 7.5 3.364 7.5 7.5s-3.364 7.5-7.5 7.5zm0-60h-100c-4.136 0-7.5-3.364-7.5-7.5s3.364-7.5 7.5-7.5h100c4.136 0 7.5 3.364 7.5 7.5s-3.364 7.5-7.5 7.5z"/></g></g></svg>